<?xml version="1.0" encoding="UTF-8"?>
<svg id="Layer_1" data-name="Layer 1" xmlns="http://www.w3.org/2000/svg" viewBox="0 0 33.51 28.19">
  <defs>
    <style>
      .cls-1 {
        fill: #f8cc4d;
      }
    </style>
  </defs>
  <path class="cls-1" d="M0,28.13c2.41-3.62,4.77-7.16,7.14-10.7,.62-.93,1.22-1.88,1.88-2.78,.33-.45,.2-.75-.07-1.15C6,9.11,3.08,4.71,.15,.31c-.04-.06-.06-.12-.12-.26C.3,.03,.52,0,.75,0,8.37,0,15.99,0,23.61,0c.41,0,.7,.05,.96,.45,2.89,4.39,5.81,8.76,8.73,13.12,.26,.38,.29,.63,.02,1.03-2.93,4.37-5.84,8.76-8.78,13.13-.15,.22-.48,.43-.73,.44-7.84,.02-15.68,.02-23.51,.01-.07,0-.14-.02-.3-.06Z"/>
</svg>